<svg id="Layer_1" data-name="Layer 1" xmlns="http://www.w3.org/2000/svg" viewBox="0 0 695.71 638.65"><defs><style>.cls-1{fill:#f2f2f2;}.cls-2{fill:#fff;}.cls-3{fill:#135536;}.cls-4{fill:#3f3d56;}.cls-5{fill:#a7a6bc;}.cls-6{fill:#e6e6e6;}</style></defs><path class="cls-1" d="M601.46,216a79.83,79.83,0,1,1-79.68-80h0a79.61,79.61,0,0,1,79.68,79.56Z" transform="translate(0 0)"/><circle class="cls-2" cx="614.89" cy="246.83" r="79.83"/><path d="M582.31,215.6A75.63,75.63,0,0,1,577,232.68c-14.09,29.79,26,20.08,40.35,20.08,15.67,0,30.66,8.24,28.37-28.37C644.7,208.75,633,196,617.31,196,603.92,196,585.11,202,582.31,215.6Z" transform="translate(0 0)"/><path d="M599.3,206.2a26.4,26.4,0,0,1,40.15,23.05c-11.74,2.95-24.09,5.2-36.61.7l-3-7.24L598.13,230c-3.81,1.56-7.64,2.88-11.46,0A27,27,0,0,1,599.3,206.2Z" transform="translate(0 0)"/><path class="cls-3" d="M677,299.91A79.81,79.81,0,0,1,565.27,308l6.85-19.11a20.54,20.54,0,0,1,17.45-12l4.36-.27,10.38-9s28-1,27.57-1.47l17,10.19,0-.07,6.67.41a20.54,20.54,0,0,1,17.45,12Z" transform="translate(0 0)"/><path class="cls-1" d="M43.88,139.84l-2-27.58A89.25,89.25,0,0,0,0,102.86c20.43,15.79,18.8,47.36,33,69a53.65,53.65,0,0,0,40,23.72l17,9.78A90,90,0,0,0,69,133a87,87,0,0,0-16.37-14.4C49,129.25,43.88,139.84,43.88,139.84Z" transform="translate(0 0)"/><path class="cls-4" d="M614.89,327.66a80.83,80.83,0,1,1,80.82-80.83h0A80.92,80.92,0,0,1,614.89,327.66Zm0-159.66a78.83,78.83,0,1,0,78.82,78.83h0A78.91,78.91,0,0,0,614.89,168Z" transform="translate(0 0)"/><circle class="cls-2" cx="288.89" cy="80.83" r="79.83"/><circle cx="292.58" cy="62.94" r="26.03"/><path id="f183d98d-beca-4def-af6d-fbe16b93cf6a-50" d="M315.5,45.74s6.78-13-8.13-14.13c0,0-12.71-11.53-25.67-2.11,0,0-7.07,0-10.93,8,0,0-5.56-2.11-6.78,3.53,0,0-4.07,11.78,0,22.38s5.42,11.78,5.42,11.78S266.55,62,282.82,60.86,314,49.49,315.37,62.45s2.84,7.1,2.84,7.1S331.09,51,315.5,45.74Z" transform="translate(0 0)"/><path class="cls-3" d="M348.92,133.91A79.8,79.8,0,0,1,237.24,142l6.84-19.11a20.57,20.57,0,0,1,17.45-12l4.36-.27,10.39-9s28-1,27.57-1.47l16.95,10.19v-.07l6.66.41a20.53,20.53,0,0,1,17.45,12Z" transform="translate(0 0)"/><path class="cls-5" d="M288.89,161.66a80.83,80.83,0,1,1,80.82-80.83h0A80.92,80.92,0,0,1,288.89,161.66ZM288.89,2a78.83,78.83,0,1,0,78.82,78.83h0A78.91,78.91,0,0,0,288.89,2Z" transform="translate(0 0)"/><circle class="cls-2" cx="102.56" cy="206.83" r="79.83"/><path d="M65.56,180.86c3.3-10.52,10.81-20.17,21.19-23.72s25.58,1.86,33.39,9.63c14.27,14.23,17.76,63.11,8,78.56-2-.11-8.68-.18-10.66-.26l-2.79-9.31V245c-3.15-.1-6.32-.16-9.51-.2a41.4,41.4,0,0,1-40.87-40.37C64,194.16,64.26,185,65.56,180.86Z" transform="translate(0 0)"/><path d="M81.74,173l26.2-13.11h0a32.89,32.89,0,0,1,19.28,27.28l.66,7.82-11-2.8-1.2-10-1.87,9.22-5.06-1.28,0-15.53-5.07,15.51L85.68,186Z" transform="translate(0 0)"/><path class="cls-3" d="M161.8,259.65a79.79,79.79,0,0,1-111.68,8.08L57,248.62a20.57,20.57,0,0,1,17.45-12l4.36-.27,10.39-9s28-1,27.57-1.48l17,10.2v-.07l6.66.41a20.52,20.52,0,0,1,17.45,12Z" transform="translate(0 0)"/><path class="cls-5" d="M102.56,287.66a80.83,80.83,0,1,1,80.83-80.83h0A80.93,80.93,0,0,1,102.56,287.66Zm0-159.66a78.83,78.83,0,1,0,78.83,78.83h0A78.92,78.92,0,0,0,102.56,128Z" transform="translate(0 0)"/><path class="cls-6" d="M222.75,370.77H121.08a10.3,10.3,0,0,1-10.28-10.28V297.88a10.3,10.3,0,0,1,10.28-10.28H222.75A10.28,10.28,0,0,1,233,297.88v62.61A10.28,10.28,0,0,1,222.75,370.77Z" transform="translate(0 0)"/><path class="cls-2" d="M182.35,362.7H128.23a9.63,9.63,0,0,1-9.63-9.62V305.29a9.63,9.63,0,0,1,9.63-9.62H215.6a9.62,9.62,0,0,1,9.62,9.62v14.54A42.9,42.9,0,0,1,182.35,362.7Z" transform="translate(0 0)"/><path class="cls-3" d="M206.88,321.83H136.94a2.28,2.28,0,0,1,0-4.56h69.94a2.28,2.28,0,1,1,0,4.56Z" transform="translate(0 0)"/><path class="cls-3" d="M147.88,330.85H136.94a2.28,2.28,0,0,1,0-4.56h10.94a2.28,2.28,0,1,1,0,4.56Z" transform="translate(0 0)"/><path class="cls-3" d="M167.26,339.86H136.94a2.28,2.28,0,0,1,0-4.56h30.32a2.28,2.28,0,0,1,0,4.56Z" transform="translate(0 0)"/><circle class="cls-5" cx="107.26" cy="286.35" r="21.51"/><path class="cls-1" d="M234.43,407.72l2-27.59a89.27,89.27,0,0,1,41.9-9.39c-20.43,15.79-18.79,47.35-32.94,69a53.72,53.72,0,0,1-40,23.72l-17,9.78a89.94,89.94,0,0,1,20.94-72.35,87,87,0,0,1,16.37-14.39C229.36,397.13,234.43,407.72,234.43,407.72Z" transform="translate(0 0)"/><circle class="cls-2" cx="175.75" cy="474.7" r="79.83"/><path d="M212.75,448.74c-3.3-10.52-10.81-20.17-21.19-23.73s-25.58,1.86-33.39,9.64c-14.27,14.23-17.76,63.11-7.95,78.55,1.95-.1,8.68-.18,10.66-.25l2.79-9.31v9.22q4.72-.15,9.51-.2a41.4,41.4,0,0,0,40.87-40.38C214.31,462,214.05,452.88,212.75,448.74Z" transform="translate(0 0)"/><path d="M196.57,440.87l-26.2-13.12h0A32.93,32.93,0,0,0,151.09,455l-.65,7.82,11-2.79,1.21-10,1.86,9.22,5.06-1.29-.05-15.52L174.55,458l18.08-4.15Z" transform="translate(0 0)"/><path class="cls-3" d="M116.51,527.53A79.8,79.8,0,0,0,228.2,535.6l-6.85-19.1a20.54,20.54,0,0,0-17.45-12l-4.36-.26-10.39-9s-28-1-27.57-1.48l-17,10.2,0-.07-6.67.4a20.53,20.53,0,0,0-17.45,12Z" transform="translate(0 0)"/><path class="cls-5" d="M175.75,555.53A80.83,80.83,0,1,0,94.92,474.7h0A80.92,80.92,0,0,0,175.75,555.53Zm0-159.65A78.83,78.83,0,1,1,96.92,474.7h0a78.91,78.91,0,0,1,78.83-78.82Z" transform="translate(0 0)"/><path class="cls-6" d="M157.23,638.65H55.57a10.3,10.3,0,0,1-10.28-10.28V565.75a10.28,10.28,0,0,1,10.28-10.27H157.23a10.29,10.29,0,0,1,10.28,10.27v62.62A10.3,10.3,0,0,1,157.23,638.65Z" transform="translate(0 0)"/><path class="cls-2" d="M116.84,630.58H62.71A9.63,9.63,0,0,1,53.09,621V573.17a9.63,9.63,0,0,1,9.62-9.63h87.37a9.64,9.64,0,0,1,9.63,9.63v14.54A42.92,42.92,0,0,1,116.84,630.58Z" transform="translate(0 0)"/><path class="cls-3" d="M141.37,589.71H71.43a2.28,2.28,0,1,1,0-4.56h69.94a2.28,2.28,0,1,1,0,4.56Z" transform="translate(0 0)"/><path class="cls-3" d="M82.37,598.72H71.43a2.28,2.28,0,1,1,0-4.56H82.37a2.28,2.28,0,0,1,0,4.56Z" transform="translate(0 0)"/><path class="cls-3" d="M101.75,607.74H71.43a2.29,2.29,0,0,1,0-4.57h30.32a2.29,2.29,0,0,1,0,4.57Z" transform="translate(0 0)"/><circle class="cls-5" cx="171.06" cy="554.23" r="21.51"/><path class="cls-6" d="M486.75,86.77H385.08A10.3,10.3,0,0,1,374.8,76.49V13.88A10.3,10.3,0,0,1,385.08,3.6H486.75A10.28,10.28,0,0,1,497,13.88V76.49A10.28,10.28,0,0,1,486.75,86.77Z" transform="translate(0 0)"/><path class="cls-2" d="M446.35,78.7H392.23a9.63,9.63,0,0,1-9.63-9.62V21.29a9.63,9.63,0,0,1,9.63-9.62H479.6a9.62,9.62,0,0,1,9.62,9.62V35.83A42.9,42.9,0,0,1,446.35,78.7Z" transform="translate(0 0)"/><path class="cls-3" d="M470.88,37.83H400.94a2.26,2.26,0,0,1-2.28-2.27,2.29,2.29,0,0,1,2.28-2.29h69.94a2.28,2.28,0,1,1,0,4.56Z" transform="translate(0 0)"/><path class="cls-3" d="M411.88,46.85H400.94a2.28,2.28,0,1,1,0-4.56h10.94a2.28,2.28,0,1,1,0,4.56Z" transform="translate(0 0)"/><path class="cls-3" d="M431.26,55.86H400.94a2.28,2.28,0,0,1,0-4.56h30.32a2.28,2.28,0,1,1,0,4.56Z" transform="translate(0 0)"/><circle class="cls-5" cx="371.26" cy="77.35" r="21.51"/><circle class="cls-2" cx="538.41" cy="496.75" r="79.83"/><circle cx="534.72" cy="478.86" r="26.03"/><path id="f183d98d-beca-4def-af6d-fbe16b93cf6a-50-2" data-name="f183d98d-beca-4def-af6d-fbe16b93cf6a-50" d="M511.8,461.67s-6.78-13,8.13-14.14c0,0,12.72-11.53,25.67-2.1,0,0,7.07,0,10.93,8,0,0,5.56-2.1,6.78,3.54,0,0,4.07,11.78,0,22.38s-5.42,11.77-5.42,11.77,2.86-13.15-13.41-14.33-31.19-11.37-32.55,1.59-2.84,7.1-2.84,7.1S496.21,467,511.8,461.67Z" transform="translate(0 0)"/><path class="cls-3" d="M478.38,549.83a79.79,79.79,0,0,0,111.68,8.07l-6.84-19.1a20.56,20.56,0,0,0-17.45-12l-4.36-.26-10.39-9s-28-1-27.57-1.48l-17,10.2v-.07l-6.66.41a20.5,20.5,0,0,0-17.45,12Z" transform="translate(0 0)"/><path class="cls-5" d="M538.41,577.58a80.83,80.83,0,1,0-80.82-80.83h0A80.92,80.92,0,0,0,538.41,577.58Zm0-159.66a78.83,78.83,0,1,1-78.82,78.83h0A78.92,78.92,0,0,1,538.41,417.92Z" transform="translate(0 0)"/><path class="cls-6" d="M442.22,502.69H340.55a10.27,10.27,0,0,1-10.27-10.27V429.8a10.29,10.29,0,0,1,10.27-10.28H442.22A10.3,10.3,0,0,1,452.5,429.8v62.62A10.29,10.29,0,0,1,442.22,502.69Z" transform="translate(0 0)"/><path class="cls-2" d="M401.83,494.63H347.7a9.63,9.63,0,0,1-9.62-9.63V437.21a9.63,9.63,0,0,1,9.62-9.62h87.37a9.64,9.64,0,0,1,9.63,9.62v14.55A42.93,42.93,0,0,1,401.83,494.63Z" transform="translate(0 0)"/><path class="cls-3" d="M426.36,453.76H356.42a2.28,2.28,0,1,1,0-4.56h69.95a2.28,2.28,0,0,1,0,4.56Z" transform="translate(0 0)"/><path class="cls-3" d="M367.36,462.77H356.42a2.28,2.28,0,1,1,0-4.56h10.95a2.28,2.28,0,0,1,0,4.56Z" transform="translate(0 0)"/><path class="cls-3" d="M386.73,471.79H356.42a2.29,2.29,0,0,1,0-4.57h30.31a2.29,2.29,0,0,1,0,4.57Z" transform="translate(0 0)"/><circle class="cls-5" cx="456.04" cy="493.28" r="21.51"/><polygon class="cls-5" points="228.11 294.87 227.24 293.73 264.7 244.37 337.29 244.37 373.92 195.1 445.57 195.1 481.72 147.09 649.99 147.09 649.99 148.7 482.22 148.7 446.07 196.71 374.43 196.71 337.8 245.97 265.21 245.97 228.11 294.87"/><ellipse class="cls-2" cx="375.14" cy="196.19" rx="22.55" ry="29.72"/><ellipse class="cls-3" cx="482.4" cy="148" rx="6.09" ry="8.03"/><ellipse class="cls-3" cx="648.77" cy="148" rx="6.09" ry="8.03"/><ellipse class="cls-3" cx="565.89" cy="148" rx="6.09" ry="8.03"/><path class="cls-4" d="M375.14,226.71c-12.79,0-23.16-13.66-23.16-30.52s10.37-30.52,23.16-30.52,23.15,13.66,23.15,30.52S387.92,226.69,375.14,226.71Zm0-59.44c-12.12,0-21.94,12.95-21.94,28.92S363,225.1,375.14,225.1s21.94-12.94,21.94-28.91S387.25,167.29,375.14,167.27Z" transform="translate(0 0)"/><ellipse class="cls-3" cx="375.14" cy="196.19" rx="16.11" ry="21.23"/><polygon class="cls-2" points="373.6 205.15 368.78 196.98 371.58 194.11 373.87 197.98 381.58 187.25 384.16 190.47 373.6 205.15"/><ellipse class="cls-2" cx="264.22" cy="245.18" rx="22.55" ry="29.72"/><path class="cls-4" d="M264.22,275.71c-12.79,0-23.16-13.67-23.16-30.53s10.37-30.52,23.16-30.52,23.16,13.67,23.16,30.52S277,275.69,264.22,275.71Zm0-59.44c-12.12,0-21.94,12.95-21.94,28.91s9.82,28.92,21.94,28.92,21.94-13,21.94-28.92S276.33,216.29,264.22,216.27Z" transform="translate(0 0)"/><ellipse class="cls-3" cx="264.22" cy="245.18" rx="16.11" ry="21.23"/><polygon class="cls-2" points="262.68 254.15 257.86 245.98 260.66 243.1 262.95 246.97 270.66 236.24 273.24 239.46 262.68 254.15"/></svg>